Coordinates
version=1
nRows=49
nColumns=12
inDegrees=yes

Units are S.I. units (second, meters, Newtons, ...)
Angles are in degrees

endheader
time	SC_y	SC_z	SC_x	AC_y	AC_z	AC_x	GH_y	GH_z	GH_yy	EL_x	PS_y
       0.0               -26.2          12.11          53.59          50.64          9.446          -4.78         -85.71          6.229         -116.4          11.36          121.7
   0.00236               -26.2           12.1          53.59          50.64          9.445          -4.78         -85.71          6.233         -116.4          11.36          121.7
  0.004721               -26.2           12.1          53.58          50.64          9.445         -4.781          -85.7          6.237         -116.4          11.36          121.7
  0.007081               -26.2           12.1          53.58          50.64          9.445         -4.781         -85.69          6.242         -116.4          11.37          121.7
  0.009441              -26.19           12.1          53.57          50.63          9.444         -4.781         -85.69          6.247         -116.4          11.37          121.7
    0.0118              -26.19          12.09          53.57          50.63          9.444         -4.782         -85.68          6.252         -116.4          11.37          121.7
   0.01416              -26.19          12.09          53.56          50.63          9.444         -4.782         -85.67          6.257         -116.4          11.37          121.7
   0.01652              -26.19          12.09          53.56          50.63          9.443         -4.783         -85.67          6.263         -116.4          11.37          121.7
   0.01888              -26.18          12.08          53.55          50.62          9.443         -4.783         -85.66          6.269         -116.4          11.37          121.7
   0.02124              -26.18          12.08          53.54          50.62          9.442         -4.784         -85.65          6.276         -116.3          11.37          121.7
    0.0236              -26.18          12.07          53.54          50.61          9.441         -4.785         -85.64          6.283         -116.3          11.37          121.7
   0.02596              -26.17          12.07          53.53          50.61          9.441         -4.785         -85.63          6.291         -116.3          11.37          121.7
   0.02832              -26.17          12.07          53.52          50.61           9.44         -4.786         -85.62          6.299         -116.3          11.37          121.7
   0.03068              -26.16          12.06          53.51           50.6          9.439         -4.787         -85.61          6.308         -116.3          11.37          121.7
   0.03304              -26.16          12.06           53.5           50.6          9.439         -4.788         -85.59          6.318         -116.3          11.37          121.7
    0.0354              -26.15          12.05          53.49          50.59          9.438         -4.788         -85.58          6.328         -116.2          11.37          121.6
   0.03776              -26.15          12.04          53.48          50.59          9.437         -4.789         -85.56           6.34         -116.2          11.37          121.6
   0.04012              -26.14          12.04          53.47          50.58          9.436         -4.791         -85.55          6.352         -116.2          11.37          121.6
   0.04249              -26.14          12.03          53.45          50.57          9.435         -4.792         -85.53          6.366         -116.2          11.37          121.6
   0.04485              -26.13          12.02          53.44          50.57          9.434         -4.793         -85.51          6.381         -116.1          11.37          121.6
   0.04721              -26.12          12.01          53.42          50.56          9.432         -4.794         -85.49          6.398         -116.1          11.37          121.6
   0.04957              -26.11           12.0           53.4          50.55          9.431         -4.796         -85.46          6.416         -116.1          11.37          121.6
   0.05193               -26.1          11.99          53.38          50.54          9.429         -4.798         -85.44          6.436         -116.0          11.37          121.6
   0.05429              -26.09          11.98          53.36          50.53          9.428           -4.8         -85.41          6.458         -116.0          11.37          121.6
   0.05665              -26.08          11.96          53.33          50.51          9.426         -4.802         -85.38          6.482         -115.9          11.37          121.6
   0.05901              -26.07          11.95          53.31           50.5          9.423         -4.804         -85.34           6.51         -115.9          11.37          121.6
   0.06137              -26.05          11.93          53.28          50.49          9.421         -4.807          -85.3          6.541         -115.8          11.37          121.6
   0.06373              -26.04          11.91          53.24          50.47          9.418          -4.81         -85.25          6.575         -115.8          11.37          121.6
   0.06609              -26.02          11.89           53.2          50.45          9.415         -4.813          -85.2          6.614         -115.7          11.37          121.6
   0.06845               -26.0          11.86          53.16          50.43          9.412         -4.817         -85.14          6.659         -115.6          11.37          121.6
   0.07081              -25.97          11.84          53.11           50.4          9.408         -4.821         -85.07           6.71         -115.5          11.37          121.6
   0.07317              -25.95           11.8          53.05          50.37          9.403         -4.826          -85.0          6.768         -115.4          11.37          121.6
   0.07553              -25.92          11.77          52.98          50.34          9.398         -4.832         -84.91          6.835         -115.3          11.37          121.6
   0.07789              -25.88          11.72           52.9           50.3          9.391         -4.839          -84.8          6.913         -115.1          11.37          121.6
   0.08025              -25.84          11.67          52.81          50.25          9.384         -4.847         -84.68          7.004         -114.9          11.37          121.6
   0.08261              -25.78          11.61           52.7           50.2          9.376         -4.856         -84.54          7.112         -114.7          11.37          121.6
   0.08497              -25.72          11.54          52.57          50.13          9.365         -4.867         -84.37           7.24         -114.5          11.37          121.5
   0.08733              -25.65          11.45          52.42          50.06          9.353          -4.88         -84.17          7.393         -114.2          11.37          121.5
   0.08969              -25.56          11.35          52.23          49.96          9.339         -4.896         -83.92          7.579         -113.8          11.37          121.5
   0.09205              -25.46          11.22           52.0          49.85          9.321         -4.916         -83.62          7.805         -113.4          11.37          121.5
   0.09441              -25.32          11.06          51.72          49.71          9.298          -4.94         -83.25          8.085         -112.8          11.38          121.4
   0.09677              -25.16          10.87          51.37          49.53          9.271          -4.97         -82.79          8.434         -112.1          11.38          121.4
   0.09913              -24.95          10.62          50.92          49.31          9.236         -5.008         -82.21          8.873         -111.3          11.38          121.4
    0.1015              -24.69          10.31          50.36          49.03          9.191         -5.056         -81.47          9.432         -110.2          11.38          121.3
    0.1039              -24.35          9.906          49.64          48.67          9.135         -5.117         -80.52          10.15         -108.8          11.39          121.2
    0.1062              -23.92          9.392          48.71          48.21          9.062         -5.196          -79.3          11.06         -107.0          11.39          121.1
    0.1086              -23.36          8.734          47.53          47.62          8.969         -5.297         -77.75          12.24         -104.7           11.4          121.0
    0.1109              -22.67          7.907          46.05          46.88          8.852         -5.424         -75.79          13.71         -101.8          11.41          120.8
    0.1133              -21.82          6.899          44.23          45.97          8.709         -5.579         -73.41          15.51         -98.27          11.42          120.6
